<?xml version="1.0" encoding="utf-8"?>
<!-- Generator: Adobe Illustrator 23.0.3, SVG Export Plug-In . SVG Version: 6.00 Build 0)  -->
<svg version="1.1" id="Ebene_1" xmlns="http://www.w3.org/2000/svg" xmlns:xlink="http://www.w3.org/1999/xlink" x="0px" y="0px"
	 viewBox="0 0 160.6884155 56.6740532" style="enable-background:new 0 0 160.6884155 56.6740532;" xml:space="preserve">
<style type="text/css">
	.st0{fill:#3B3C3C;}
	.st1{clip-path:url(#SVGID_2_);}
	.st2{clip-path:url(#SVGID_4_);fill:#212D36;}
	.st3{clip-path:url(#SVGID_4_);fill:#FFFFFF;}
</style>
<g>
	<path class="st0" d="M95.3544312,34.5055428c0,0,2.6640625,3.0244141,5.9033203,3.0244141
		c1.2958984,0,2.5917969-0.4677734,2.5917969-1.9082031c0-2.84375-11.6621094-3.1669922-11.6621094-11.2309551
		c0-4.6435547,4.0673828-7.7392578,9.1787109-7.7392578c3.4199219,0,8.2070313,1.65625,8.2070313,5.5791016v2.8076172h-5.7597656
		v-1.1152344c0-0.9365234-1.3310547-1.5117188-2.5195313-1.5117188c-1.2958984,0-2.6279297,0.5400391-2.6279297,1.7275391
		c0,3.1318359,11.6630859,2.6992188,11.6630859,11.1586895c0,4.2841797-3.3476563,7.9550781-9.1425858,7.9550781
		c-6.0478439,0-9.3955002-4.2470703-9.3955002-4.2470703L95.3544312,34.5055428z"/>
	<path class="st0" d="M125.5917358,16.6515408c3.0595703,0,9.8632813,1.1884766,9.8632813,6.0117188v3.3837891h-5.7597656
		v-1.4042969c0-1.4755859-2.3037109-2.0517578-3.9589844-2.0517578c-3.7441406,0-6.7675781,2.4121094-6.7675781,7.0908203
		c0,4.2124004,3.1318359,7.6323223,6.9111328,7.6323223c4.4990234,0,7.3427734-3.2763672,7.3427734-3.2763672l3.2753906,4.6074219
		c0,0-3.8867188,4.6074219-10.7265625,4.6074219c-8.1347656,0-13.4980469-5.8310547-13.4980469-13.5707989
		C112.2733765,22.3029079,117.9247437,16.6515408,125.5917358,16.6515408z"/>
	<path class="st0" d="M145.0302124,30.042654l-4.2119141-6.7680664c-0.4677734-0.7197266-0.5039063-0.7919922-1.2958984-0.7919922
		h-1.3310547v-5.3984375h4.1748047c1.6923828,0,2.4121094,0.3955078,3.1318359,1.7275391l1.8359375,3.3476563
		c0.8994141,1.6191406,1.5839844,3.2392578,1.5839844,3.2392578h0.0712891c0,0,0.6845703-1.6201172,1.5839844-3.2392578
		l1.8720703-3.3476563c0.7558594-1.3320313,1.4394531-1.7275391,3.1318359-1.7275391h4.1748047v5.3984375h-1.3310547
		c-0.7919922,0-0.828125,0.0722656-1.2958984,0.7919922l-4.2480469,6.7680664l7.8115234,12.7783184h-7.1630859l-2.9521484-5.1835938
		c-0.8994141-1.6191406-1.5839844-3.1318359-1.5839844-3.1318359h-0.0712891c0,0-0.6845703,1.5126953-1.5839844,3.1318359
		l-2.9521484,5.1835938h-7.1269531L145.0302124,30.042654z"/>
</g>
<g>
	<g>
		<defs>
			<rect id="SVGID_1_" width="76.0988998" height="56.6740532"/>
		</defs>
		<clipPath id="SVGID_2_">
			<use xlink:href="#SVGID_1_"  style="overflow:visible;"/>
		</clipPath>
		<g class="st1">
			<defs>
				<rect id="SVGID_3_" y="0.0011569" width="76.0986404" height="56.6728973"/>
			</defs>
			<clipPath id="SVGID_4_">
				<use xlink:href="#SVGID_3_"  style="overflow:visible;"/>
			</clipPath>
			<path class="st2" d="M68.3216324,0H7.7779369C3.4811704,0-0.0006933,3.481868-0.0006933,7.7763209v41.1202583
				c0,4.2967682,3.4818637,7.7763176,7.7786303,7.7763176h60.5436935c4.2944489,0,7.7763138-3.4795494,7.7763138-7.7763176
				V7.7763209C76.0979462,3.481868,72.6160812,0,68.3216324,0"/>
			<path class="st3" d="M29.4888897,41.1140099c0,3.8059731-0.8010159,6.2159615-2.3822079,7.1581955
				c-1.0788231,0.6459045-3.694849,0.9723282-7.7740021,0.9723282c-3.3429594,0-5.5306997-0.5162621-6.5007143-1.5372047
				c-0.9746447-1.0255775-1.4677534-3.243412-1.4677534-6.5933189v-8.8065224h7.7971516v8.2462769
				c0,1.7710266,0.7037811,2.1437531,1.2918091,2.1437531c0.4769039,0,1.0718765-0.2500267,1.1945763-1.4746971V9.2910681h7.8411407
				V41.1140099z"/>
			<polygon class="st3" points="47.2938576,15.6132898 43.369812,15.6132898 43.369812,49.0822487 35.519413,49.0822487 
				35.519413,15.6132898 31.5953712,15.6132898 31.5953712,9.2908382 47.2938576,9.2908382 			"/>
			<polygon class="st3" points="62.5034027,49.0822487 49.944149,49.0822487 49.944149,9.2908382 57.7297287,9.2908382 
				57.7297287,42.5259705 62.5034027,42.5259705 			"/>
		</g>
	</g>
</g>
</svg>
